<svg width="646" height="360" viewBox="0 0 646 360" fill="none" xmlns="http://www.w3.org/2000/svg">
<g clip-path="url(#clip0_280_3588)">
<path fill-rule="evenodd" clip-rule="evenodd" d="M234.953 156.813C294.767 156.813 307.687 123.825 308.644 111.873H265.578C265.578 117.131 258.4 131.952 236.867 131.952C204.327 131.952 203.849 107.092 203.849 95.1394C203.849 80.7968 211.027 62.1514 237.824 62.1514C257.921 61.1952 264.142 73.1474 266.535 80.3187H309.601C305.773 44.9402 263.664 36.8127 237.824 36.8127C182.794 36.8127 159.825 63.1076 159.825 99.9203C159.347 123.825 173.702 156.813 234.953 156.813ZM369.416 88.4462C369.416 71.2351 384.25 62.1514 402.913 62.1514C430.188 62.1514 431.145 76.494 431.145 84.6215V153.944H473.733V75.0598C473.733 49.7211 448.85 37.2908 417.268 37.2908C393.821 37.2908 375.637 45.8964 370.373 54.9801H369.416V0H326.828V153.944H369.416V88.4462ZM100.967 112.829C100.967 126.693 81.3482 134.821 62.6859 134.821C54.5511 134.821 43.0667 131.952 43.0667 120.956C43.0667 108.526 56.4652 106.135 71.7778 104.223C89.483 102.311 96.6607 100.398 100.967 98.008V112.829ZM86.1333 82.7092L47.8519 87.012C20.0978 89.8805 0 101.355 0 123.347C0 147.251 24.883 156.813 49.7659 156.813C78.9556 156.813 92.3541 147.251 101.924 140.08C102.403 144.861 103.839 149.641 106.231 153.944H152.169V149.163C146.905 148.207 143.077 145.339 143.077 131.474V69.8008C143.077 42.0717 100.967 37.2908 77.9985 37.2908C44.9807 37.2908 10.0489 42.0717 5.74222 76.9721H47.3733C48.3304 70.757 52.1585 61.1952 73.2133 61.1952C84.2193 61.1952 101.924 62.1514 101.924 74.5817C100.967 80.3187 92.3541 82.2311 86.1333 82.7092ZM633.559 0.478088H499.573V19.6016H633.559V0.478088ZM565.609 61.6733C579.486 61.6733 596.234 66.9323 598.627 85.5777H532.113C534.984 70.757 545.99 61.6733 565.609 61.6733ZM569.916 156.813C597.67 156.813 629.73 147.251 641.693 120.478H597.67C594.32 128.127 581.879 132.908 569.916 132.908C535.462 132.908 532.591 113.785 531.634 105.179H643.607V99.9203C643.607 47.8088 599.105 37.2908 567.044 37.2908C495.745 37.2908 489.046 81.2749 489.046 94.6614C488.567 141.036 523.978 156.813 569.916 156.813Z" fill="#B7B7B7"/>
<path d="M9.09184 195.06V199.841C12.92 196.016 15.7911 194.582 19.1407 194.582C23.4474 194.582 27.2755 197.451 29.1896 201.275C33.4963 196.494 36.3674 194.582 40.1955 194.582C47.3733 194.582 51.68 199.841 51.68 209.403V232.351H44.9807V209.881C44.9807 204.144 42.1096 200.797 37.8029 200.797C34.9318 201.275 32.0607 202.71 30.1467 205.578V232.351H23.4474V210.359C23.4474 205.578 22.4904 200.797 16.7481 200.797C13.3985 200.797 10.5274 202.71 8.61332 205.578V232.351H2.39258V195.538H9.09184V195.06Z" fill="#B7B7B7"/>
<path d="M90.4401 229.959C87.5689 232.349 86.1334 232.828 83.7408 232.828C81.3482 233.306 78.9556 231.393 78.4771 229.003C76.0845 231.393 72.7349 232.828 69.3852 232.828C64.6001 232.828 60.7719 228.525 61.2504 223.744C61.2504 216.573 67.4712 214.182 72.7349 212.27L78.4771 209.879V207.967C78.4771 203.186 76.563 201.274 72.2564 201.274C67.9497 201.274 64.1215 203.664 61.7289 207.489V199.361C64.6001 196.015 68.4282 194.102 72.7349 194.581C79.9127 194.102 85.6549 199.839 85.1764 206.533V225.656C85.1764 227.09 85.6549 227.569 86.6119 227.569C88.0475 227.09 89.0045 226.612 89.9615 225.656V229.959H90.4401ZM78.9556 213.704C73.2134 215.616 68.4282 218.007 68.4282 222.31C68.4282 225.178 70.3423 227.569 73.2134 227.569C75.606 227.569 77.5201 226.134 78.9556 224.7V213.704Z" fill="#B7B7B7"/>
<path d="M106.231 184.065C105.753 187.411 101.925 188.845 99.5319 186.455C97.1393 184.065 99.0534 179.762 102.403 179.762C104.796 179.762 106.71 181.674 106.231 184.065ZM105.753 232.351H99.0534V195.539H105.753V232.351Z" fill="#B7B7B7"/>
<path d="M138.292 204.621C135.421 202.23 132.071 200.796 128.722 200.796C125.372 200.796 124.415 202.708 124.415 204.143C124.415 206.533 126.807 207.967 131.593 210.836C136.378 213.704 140.206 217.529 140.206 222.31C140.206 228.525 134.942 233.306 128.722 232.828C124.893 232.828 120.587 231.394 117.237 229.481V221.354C120.108 223.744 123.936 225.656 127.764 226.135C129.679 226.135 133.028 224.7 133.028 222.31C133.028 219.919 131.114 218.485 127.764 216.573C122.022 213.226 117.237 209.88 117.237 203.664C117.237 197.927 122.501 193.625 127.764 194.103C131.593 194.103 134.942 195.059 137.813 196.971L138.292 204.621Z" fill="#B7B7B7"/>
<path d="M187.579 232.828H185.187L169.874 195.059H177.052L186.144 217.529L194.757 195.059H201.935L187.579 232.828Z" fill="#B7B7B7"/>
<path d="M218.204 184.065C217.726 187.411 213.898 188.845 211.505 186.455C209.112 184.065 211.027 179.762 214.376 179.762C216.29 179.762 218.204 181.674 218.204 184.065ZM217.247 232.351H210.548V195.539H217.247V232.351Z" fill="#B7B7B7"/>
<path d="M259.357 232.352H245.002C231.603 232.352 228.732 220.4 228.732 213.228C228.732 201.276 236.867 194.583 245.48 194.583C247.873 194.583 250.265 195.061 252.658 196.017V175.938H259.357V232.352ZM252.658 202.71C250.744 201.754 248.83 200.798 246.437 200.798C240.695 200.798 235.431 204.623 235.431 214.185C235.431 220.4 237.824 223.746 240.216 225.181C242.609 226.137 245.002 226.615 247.394 226.137H252.658V202.71Z" fill="#B7B7B7"/>
<path d="M298.117 229.959C295.246 232.349 293.81 232.828 291.418 232.828C289.025 233.306 286.633 231.393 286.154 229.003C283.762 231.393 280.412 232.828 277.062 232.828C272.277 232.828 268.449 228.525 268.927 223.744C268.927 216.573 275.148 214.182 280.412 212.27L286.154 209.879V207.967C286.154 203.186 284.24 201.274 279.933 201.274C275.627 201.274 271.799 203.664 269.406 207.489V199.361C272.277 196.015 276.105 194.102 280.412 194.581C287.59 194.102 293.332 199.839 292.853 206.533V225.656C292.853 227.09 293.332 227.569 294.289 227.569C295.724 227.09 296.682 226.612 297.639 225.656V229.959H298.117ZM286.633 213.704C280.89 215.616 276.105 218.007 276.105 222.31C276.105 225.178 278.019 227.569 280.89 227.569C283.283 227.569 285.197 226.134 286.633 224.7V213.704Z" fill="#B7B7B7"/>
<path d="M342.141 195.059C346.447 195.059 350.754 196.015 354.104 198.405C358.889 202.23 361.281 207.967 361.281 213.704C361.281 224.222 354.582 232.828 344.533 232.828C342.141 232.828 339.748 232.349 337.356 231.393V250.995H330.178V195.059H342.141ZM336.877 202.23V224.7C338.791 225.656 341.184 226.612 343.576 226.612C349.318 226.612 354.104 221.832 354.104 213.704C354.104 202.23 345.012 202.23 341.662 202.23H336.877Z" fill="#B7B7B7"/>
<path d="M398.127 229.959C395.256 232.349 393.821 232.828 391.428 232.828C389.035 233.306 386.643 231.393 386.164 229.003C383.772 231.393 380.422 232.828 377.073 232.828C372.287 232.828 368.459 228.525 368.938 223.744C368.938 216.573 375.158 214.182 380.422 212.27L386.164 209.879V207.967C386.164 203.186 384.25 201.274 379.944 201.274C375.637 201.274 371.809 203.664 369.416 207.489V199.361C372.287 196.015 376.115 194.102 380.422 194.581C387.6 194.102 393.342 199.839 392.864 206.533V225.656C392.864 227.09 393.342 227.569 394.299 227.569C395.735 227.09 396.692 226.612 397.649 225.656V229.959H398.127ZM386.643 213.704C380.901 215.616 376.115 218.007 376.115 222.31C376.115 225.178 378.03 227.569 380.901 227.569C383.293 227.569 385.207 226.134 386.643 224.7V213.704Z" fill="#B7B7B7"/>
<path d="M412.961 195.06V203.666C415.354 199.841 418.225 194.582 423.01 194.582C426.36 194.582 429.231 196.494 431.145 198.885L427.796 205.1C425.881 203.188 423.967 201.753 421.096 201.275C418.704 201.275 412.961 204.144 412.961 212.749V231.873H406.262V195.06H412.961Z" fill="#B7B7B7"/>
<path d="M465.12 229.959C462.249 232.349 460.813 232.828 458.421 232.828C456.028 233.306 453.636 231.393 453.157 229.003C450.764 231.393 447.415 232.828 444.065 232.828C439.28 232.828 435.452 228.525 435.93 223.744C435.93 216.573 442.151 214.182 447.415 212.27L453.157 209.879V207.967C453.157 203.186 451.243 201.274 446.936 201.274C442.63 201.274 438.801 203.664 436.409 207.489V199.361C439.28 196.015 443.108 194.102 447.415 194.581C454.593 194.102 460.335 199.839 459.856 206.533V225.656C459.856 227.09 460.335 227.569 461.292 227.569C462.727 227.09 463.684 226.612 464.641 225.656V229.959H465.12ZM453.636 213.704C447.893 215.616 443.108 218.007 443.108 222.31C443.108 225.178 445.022 227.569 447.893 227.569C450.286 227.569 452.2 226.134 453.636 224.7V213.704Z" fill="#B7B7B7"/>
<path d="M511.058 232.828H508.665L493.353 195.059H500.53L509.622 217.529L518.236 195.059H525.413L511.058 232.828Z" fill="#B7B7B7"/>
<path d="M566.566 213.707C565.609 229.484 545.99 236.655 534.984 224.703C523.978 213.229 532.591 194.105 548.382 194.105C558.91 194.584 566.566 202.233 566.566 213.707ZM537.376 213.707C536.419 220.4 541.683 226.137 548.861 226.137C555.56 226.137 559.867 220.878 559.867 213.707C560.345 207.014 555.081 201.277 548.382 201.277C542.161 201.277 537.376 205.58 537.376 213.707Z" fill="#B7B7B7"/>
<path d="M601.498 205.098C598.627 202.708 595.277 201.752 591.927 201.752C584.75 201.752 581.4 208.445 581.4 214.182C580.921 220.875 586.185 226.612 592.884 226.612C596.234 226.612 599.105 225.656 601.976 224.222V231.393C598.627 232.828 595.277 233.306 591.927 233.306C580.443 233.306 574.701 224.222 574.701 214.182C574.701 205.098 579.486 195.059 591.449 195.059C594.798 195.059 598.148 196.015 601.498 197.449V205.098Z" fill="#B7B7B7"/>
<path d="M641.215 228.527C637.387 231.396 632.601 232.83 627.816 232.83C623.51 232.83 619.203 230.918 616.332 227.571C612.982 223.746 611.068 218.487 611.068 213.229C611.068 201.754 617.767 194.105 626.859 194.105C634.994 194.105 640.258 200.32 641.215 208.448C641.693 210.36 641.693 212.272 641.693 213.707H617.767C617.289 219.922 622.553 225.181 628.773 225.181C633.08 225.181 637.387 223.746 641.215 220.878V228.527ZM637.387 190.758H633.08L626.381 183.587L620.16 190.758H616.332L623.031 178.328H630.209L637.387 190.758ZM635.473 209.882C635.473 208.448 634.994 200.798 627.338 200.798C624.945 200.798 622.553 201.754 620.638 204.145C619.203 206.057 618.246 207.97 618.246 210.36H635.473V209.882Z" fill="#B7B7B7"/>
<path d="M646 350.918H0V360.002H646V350.918Z" fill="#B7B7B7"/>
</g>
<defs>
<clipPath id="clip0_280_3588">
<rect width="646" height="360" fill="white"/>
</clipPath>
</defs>
</svg>
