<svg width="389" height="86" viewBox="0 0 389 86" fill="none" xmlns="http://www.w3.org/2000/svg">
<g clip-path="url(#clip0_337_115401)">
<g clip-path="url(#clip1_337_115401)">
<path fill-rule="evenodd" clip-rule="evenodd" d="M64.4861 51.5792C45.3507 67.0546 29.8096 56.1143 31.5992 42.9332C33.1499 31.51 50.9763 17.769 67.0217 34.6399L70.906 3.41212C43.1557 -5.59375 21.3247 3.2278 5.41316 29.8767C-3.60366 51.0912 -0.0788496 67.7603 15.9871 79.8837C26.7125 87.0538 41.0266 87.9198 58.9295 82.4817L64.4861 51.5792Z" fill="#B7B7B7"/>
<path fill-rule="evenodd" clip-rule="evenodd" d="M154.202 85.6195L137.371 2.05762H104.139L62.6384 84.8925H94.6049L98.0967 74.7955H120.971L122.265 85.6195H154.202ZM117.464 30.0379L118.866 55.3663H106.89L116.169 30.0379H117.464Z" fill="#B7B7B7"/>
<path fill-rule="evenodd" clip-rule="evenodd" d="M191.481 84.4831L203.996 1.1377H173.57L161.054 84.4831H191.481Z" fill="#B7B7B7"/>
<path fill-rule="evenodd" clip-rule="evenodd" d="M236.695 40.9265H273.271L260.749 15.8725L253.526 1.41992H217.057L236.695 40.9265Z" fill="#B7B7B7"/>
<path fill-rule="evenodd" clip-rule="evenodd" d="M254.463 84.8732H290.822L270.969 45.3643L246.979 70.5483L254.463 84.8732Z" fill="#B7B7B7"/>
<path fill-rule="evenodd" clip-rule="evenodd" d="M338.487 2.05762L296.84 85.1866L328.777 85.4031L332.445 74.7956H355.319L356.614 85.6195H388.551L371.719 2.05762H338.487ZM340.983 55.3322L350.262 30.0038H351.557L352.96 55.3322H340.983Z" fill="#B7B7B7"/>
<path fill-rule="evenodd" clip-rule="evenodd" d="M274.191 1.58203L260.805 15.9266L273.328 40.9806L310.66 1.58203H274.191Z" fill="#B7B7B7"/>
<path fill-rule="evenodd" clip-rule="evenodd" d="M234.63 45.3467L197.512 84.4212H233.658L246.89 70.5307L270.881 45.3467H234.63Z" fill="#B7B7B7"/>
</g>
</g>
<defs>
<clipPath id="clip0_337_115401">
<rect width="389" height="86" fill="#B7B7B7"/>
</clipPath>
<clipPath id="clip1_337_115401">
<rect width="388" height="86" fill="#B7B7B7" transform="translate(0.551147)"/>
</clipPath>
</defs>
</svg>
