<svg width="110" height="40" viewBox="0 0 110 40" fill="#B7B7B7" xmlns="http://www.w3.org/2000/svg">
<g clip-path="url(#clip0_891_278659)">
<path d="M33.8284 16.3743C32.1208 14.7084 29.7893 13.6816 27.2176 13.6816C21.9835 13.6797 17.7402 17.9305 17.7402 23.1741C17.7402 28.4177 21.9835 32.6685 27.2176 32.6685C29.7893 32.6685 32.1208 31.6417 33.8284 29.9758V32.3546H36.6969V7.32994H33.8284V16.3743ZM27.2176 29.7319C23.6021 29.7319 20.6712 26.7953 20.6712 23.1741C20.6712 19.553 23.6021 16.6163 27.2176 16.6163C30.8331 16.6163 33.7641 19.553 33.7641 23.1741C33.7659 26.7953 30.835 29.7319 27.2176 29.7319Z" fill="#B7B7B7"/>
<path d="M75.1778 13.9482H72.3092V32.3527H75.1778V13.9482Z" fill="#B7B7B7"/>
<path d="M92.2602 13.9482H89.3916V32.3527H92.2602V13.9482Z" fill="#B7B7B7"/>
<path d="M75.1778 7.32965H72.3092V10.2928H75.1778V7.32965Z" fill="#B7B7B7"/>
<path d="M92.2602 7.32965H89.3916V10.2928H92.2602V7.32965Z" fill="#B7B7B7"/>
<path d="M54.7553 16.3738C53.0478 14.7079 50.7163 13.6811 48.1446 13.6811C42.9105 13.6811 38.6672 17.932 38.6672 23.1755C38.6672 28.4191 42.9105 32.6699 48.1446 32.6699C50.7163 32.6699 53.0478 31.6432 54.7553 29.9772V32.356H57.6239V13.9477H54.7553V16.3738ZM48.1446 29.7314C44.5291 29.7314 41.5982 26.7948 41.5982 23.1736C41.5982 19.5525 44.5291 16.6159 48.1446 16.6159C51.7601 16.6159 54.6911 19.5525 54.6911 23.1736C54.6911 26.7948 51.7601 29.7314 48.1446 29.7314Z" fill="#B7B7B7"/>
<path d="M70.1343 10.3911V7.41478C66.4848 7.92344 63.499 10.5121 62.4136 13.948H59.4997V16.8165H62.1621V32.3544H65.0307V16.8165H70.3253V13.948H65.562C66.4394 12.144 68.1186 10.8033 70.1343 10.3911Z" fill="#B7B7B7"/>
<path d="M82.1739 7.32965H79.2335V13.9479H77.1308V16.8165H79.2335V23.8754C79.5625 28.3853 83.0362 32.0196 87.4685 32.5888V29.6182C84.6813 29.0944 82.5162 26.8007 82.1834 23.9472C82.1815 23.9378 82.1739 23.8205 82.1739 23.8205V16.8165H87.4685V13.9479H82.1739V7.32965Z" fill="#B7B7B7"/>
</g>
<defs>
<clipPath id="clip0_891_278659">
<rect width="110" height="40" fill="#B7B7B7"/>
</clipPath>
</defs>
</svg>
