<svg width="555" height="138" viewBox="0 0 555 138" fill="none" xmlns="http://www.w3.org/2000/svg">
<path d="M74.5171 105.435V104.173C86.9846 104.173 94.3782 96.7023 109.762 74.3256L88.3235 42.7731C84.6224 37.2557 82.5246 35.0982 76.2568 35.0982V33.836H122.247V35.0982C117.036 35.0982 116.115 37.1704 116.115 39.7969C116.115 41.8436 117.198 43.822 118.392 45.7663L128.685 61.1162C135.507 51.1729 140.232 44.0608 140.232 39.669C140.232 36.3347 137.673 35.1408 133.299 35.1408V33.8787H159.641V35.1408C150.166 35.1408 145.263 40.3597 129.708 62.6426L152.06 95.9007C155.923 101.572 159.811 104.181 164.621 104.181V105.443H120.567V104.181C124.532 104.181 125.956 102.697 125.956 100.233C125.956 98.587 124.737 96.3527 123.065 93.9649L110.751 75.8606C101.951 88.8227 99.5118 92.9587 99.5118 96.6512C99.5118 101.043 102.923 104.181 108.892 104.181V105.443L74.5171 105.435ZM408.377 63.0349C409.008 42.1335 412.939 36.5393 417.672 36.5393C422.405 36.5393 427.104 41.0931 426.925 63.0349H408.377ZM381.881 68.5182C381.881 98.6637 413.008 113.86 439.938 100.642L439.085 99.7893C421.441 105.673 408.974 92.7028 408.974 68.5097C408.974 67.3926 408.974 66.3181 408.974 65.2692H452.073C452.073 44.1716 439.912 31.2266 418.815 31.2266C398.86 31.2436 381.881 48.12 381.881 68.5182ZM254.682 41.5366V40.3342L287.582 32.574V43.967C294.882 38.5945 302.65 32.6251 310.956 32.6251C319.783 32.6251 325.633 36.744 327.816 44.5213C335.329 39.0209 343.345 32.6251 351.941 32.6251C363.334 32.6251 369.763 39.4473 369.746 52.2389V95.7643C369.746 101.734 371.017 102.868 375.255 102.868V104.096H339.439V102.868C343.251 102.868 344.666 101.06 344.666 96.5915V48.5975C344.666 39.9845 335.815 41.1017 328.302 46.6191C328.624 48.4632 328.778 50.3328 328.762 52.2047V95.7643C328.762 101.734 330.041 102.876 334.28 102.876V104.104H298.463V102.876C302.284 102.876 303.691 101.069 303.691 96.6V48.589C303.691 40.0613 295.061 41.0675 287.608 46.4144V97.8536C287.608 101.759 290.012 102.876 293.116 102.876V104.104H254.742V102.876C259.969 102.876 262.51 99.1242 262.51 93.4021V49.655C262.451 44.2313 257.138 41.5366 254.682 41.5366ZM193.726 87.9188C193.726 78.8112 197.717 70.0106 210.858 67.0089L210.952 88.7971C210.551 94.4169 206.279 97.538 202.211 97.4869C197.453 97.4272 193.726 94.4425 193.726 87.9188ZM168.552 90.5283C168.552 103.542 181.224 106.731 187.143 106.731C197.777 106.731 208.257 100.813 211.66 92.5664C212.99 102.254 218.738 106.731 229.662 106.731C239.238 106.731 245.438 102.808 249.378 95.534L248.397 94.9115C243.187 99.3885 236.458 96.0286 236.458 86.9296V53.5692C236.458 36.744 214.875 28.0713 195.252 34.9105L195.457 36.0703C206.483 36.147 211.25 43.5235 211.25 56.5368L211.293 65.0645C179.408 68.8764 168.552 77.3359 168.552 90.5283ZM33.405 63.0349C34.0275 42.1335 37.9588 36.5393 42.6917 36.5393C47.4246 36.5393 52.1233 41.0931 51.9442 63.0349H33.405ZM5.5791 69.6695C5.5791 102.339 42.7429 117.843 70.9014 97.8621L70.0486 97.0093C48.4053 109.613 32.6631 97.0605 32.6631 69.661C32.6631 68.5524 32.6631 67.4779 32.6631 66.4375H75.7621C75.7621 45.4337 63.6016 32.5569 42.5041 32.5569C22.5578 32.5654 5.5791 49.3735 5.5791 69.6695ZM185.778 59.0951C187.177 59.1206 188.567 58.8638 189.864 58.3401C191.162 57.8164 192.341 57.0366 193.33 56.0471C194.32 55.0577 195.099 53.8791 195.623 52.5815C196.147 51.284 196.404 49.8942 196.378 48.4952C196.378 46.3987 195.756 44.3493 194.592 42.6062C193.427 40.863 191.771 39.5044 189.835 38.7021C187.898 37.8998 185.766 37.6899 183.71 38.0989C181.654 38.5079 179.765 39.5175 178.283 40.9999C176.8 42.4823 175.791 44.3711 175.382 46.4272C174.973 48.4834 175.183 50.6147 175.985 52.5516C176.787 54.4885 178.146 56.144 179.889 57.3087C181.632 58.4734 183.682 59.0951 185.778 59.0951ZM458.733 106.765C460.133 106.792 461.524 106.536 462.823 106.013C464.122 105.49 465.303 104.71 466.294 103.721C467.285 102.731 468.066 101.552 468.591 100.254C469.116 98.9559 469.374 97.5652 469.35 96.1651C469.35 94.0686 468.728 92.0192 467.564 90.2761C466.399 88.5329 464.743 87.1743 462.807 86.372C460.87 85.5697 458.738 85.3598 456.682 85.7688C454.626 86.1778 452.737 87.1873 451.255 88.6698C449.772 90.1522 448.763 92.0409 448.354 94.0971C447.945 96.1533 448.155 98.2846 448.957 100.222C449.759 102.158 451.118 103.814 452.861 104.979C454.604 106.143 456.654 106.765 458.75 106.765H458.733Z" fill="#B7B7B7"/>
</svg>
