<svg xmlns="http://www.w3.org/2000/svg" width="2500" height="2500" viewBox="6.797 10.88 182.538 209.32"><path fill="#B7B7B7" d="M161.565 16.734c15.336 0 27.77 12.43 27.77 27.768 0 15.34-12.434 27.77-27.77 27.77H34.568c-15.338 0-27.771-12.43-27.771-27.77 0-15.338 12.433-27.768 27.77-27.768h126.998z"/><path fill="#B7B7B7" d="M148.8 89.5c15.339 0 27.772 12.432 27.772 27.77S164.139 145.04 148.8 145.04H76.518c-6.165.022-11.211 4.899-11.447 11.002v36.194c0 15.336-12.433 27.768-27.767 27.768-15.338 0-27.771-12.432-27.771-27.768V130.64c0-22.72 18.418-41.141 41.139-41.141H148.8z"/></svg>