<svg width="541" height="304" viewBox="105 85 328 134" fill="none" xmlns="http://www.w3.org/2000/svg">
<path d="M362.973 166.005C363.918 162.166 364.927 158.352 366.003 154.56C373.634 150.881 387.696 149.276 398.727 149.99C400.307 155.278 401.757 160.62 403.081 166.005H423.496C415.281 136.907 404.287 109.986 392.932 91.0312H373.122C361.767 109.986 350.773 136.912 342.557 166.005H362.973ZM383.027 108.675C386.776 116.588 390.175 124.828 393.23 133.3C383.409 133.438 375.526 135.055 370.873 138.877C374.412 128.44 378.463 118.314 383.027 108.675Z" fill="#B7B7B7"/>
<path d="M425.552 174.938C404.892 182.666 380.61 189.789 346.184 189.789C285.66 189.789 243.258 174.938 187.205 174.938C163.772 174.938 143.723 178.651 130.792 182.834V91.0312H110.855V205.728C132.481 198.726 155.313 192.086 187.205 192.086C241.929 192.086 282.038 214.543 346.184 214.543C380.976 214.543 407.796 208.265 430.145 197.521C428.933 190.272 427.362 182.788 425.552 174.938Z" fill="#B7B7B7"/>
<path d="M260.05 167.572C269.956 167.572 280.588 165.279 288.682 159.844V141.612C279.26 147.891 270.561 150.667 261.5 150.667C245.434 150.667 241.207 140.163 241.207 127.366C241.207 113.481 246.523 106.358 257.033 106.358C264.283 106.358 268.388 110.705 268.872 118.672H288.199C287.715 99.1169 275.873 89.457 257.029 89.457C230.936 89.457 221.031 106.601 221.031 127.366C221.031 151.15 231.058 167.572 260.05 167.572Z" fill="#B7B7B7"/>
<path d="M164.02 154.56C171.652 150.881 185.714 149.276 196.745 149.99C198.325 155.278 199.775 160.62 201.099 166.005H221.514C213.298 136.907 202.305 109.986 190.95 91.0312H171.139C159.784 109.986 148.791 136.912 140.575 166.005H160.991C161.932 162.17 162.944 158.352 164.02 154.56ZM181.044 108.675C184.793 116.588 188.193 124.828 191.248 133.3C181.427 133.438 173.543 135.055 168.891 138.877C172.425 128.44 176.476 118.314 181.044 108.675Z" fill="#B7B7B7"/>
<path d="M311.753 166.005H331.686V107.932H351.618V91.0312H291.821V107.932H311.753V166.005Z" fill="#B7B7B7"/>
</svg>
