<svg width="439" height="195" viewBox="0 0 439 195" fill="none" xmlns="http://www.w3.org/2000/svg">
<mask id="mask0_280_3583" style="mask-type:luminance" maskUnits="userSpaceOnUse" x="0" y="0" width="439" height="195">
<path d="M438.522 0H0V194.68H438.522V0Z" fill="white"/>
</mask>
<g mask="url(#mask0_280_3583)">
<path d="M265.225 135.261H325.006V159.775H236.373V33.8984H265.225V135.261Z" fill="#B7B7B7"/>
<path d="M388.443 111.785H411.939V133.812C407.624 135.469 399.167 137.127 391.139 137.127C365.161 137.127 356.522 123.832 356.522 96.8318C356.522 71.0641 364.746 55.9009 390.701 55.9009C405.168 55.9009 413.376 60.4764 420.184 69.2018L438.132 52.5797C427.169 36.8252 408.041 32.0508 390.078 32.0508C349.696 32.0343 328.464 54.2376 328.464 96.6163C328.464 138.785 347.651 161.646 389.863 161.646C409.247 161.646 428.194 156.673 438.506 149.384V88.3107H388.443V111.785Z" fill="#B7B7B7"/>
<path d="M164.851 166.176C202.562 128.163 202.56 66.5287 164.847 28.513C127.134 -9.50281 65.9899 -9.50456 28.2788 28.5091C-9.43235 66.5226 -9.43062 128.157 28.2827 166.172C65.996 204.189 127.139 204.189 164.851 166.176Z" fill="#B7B7B7"/>
<path d="M120.187 130.983H100.452V56.2383H93.1558V138.36H100.469V138.31H120.204L120.187 130.983Z" fill="#1E1E1E"/>
<path d="M169.408 100.437H120.3V93.1045H176.606C176.683 94.5247 176.721 95.9449 176.721 97.3818C176.721 141.534 141.022 177.32 96.9963 177.32C52.9703 177.32 17.2661 141.551 17.2661 97.3761C17.2661 53.2016 52.9595 17.4375 96.9908 17.4375C98.1529 17.4375 99.3096 17.4614 100.461 17.5093V24.787C99.3096 24.7355 98.1567 24.7097 97.0018 24.7097C56.9832 24.7097 24.5297 57.2467 24.5297 97.3761C24.5297 137.506 56.9777 170.048 97.0018 170.048C135.924 170.048 167.72 139.263 169.402 100.642L169.408 100.437Z" fill="#1E1E1E"/>
<path d="M67.2662 78.3629C69.4681 78.3521 71.6174 77.6838 73.4429 76.4428C75.2685 75.2018 76.6885 73.4434 77.5235 71.3898C78.3586 69.336 78.5716 67.0789 78.1354 64.9032C77.6993 62.7277 76.6335 60.7312 75.0727 59.1655C73.5119 57.5999 71.526 56.5353 69.3656 56.1064C67.2052 55.6773 64.967 55.9031 62.9339 56.755C60.9006 57.6068 59.1632 59.0467 57.941 60.893C56.7187 62.7393 56.0664 64.9091 56.0664 67.1286C56.0701 68.6076 56.3626 70.0713 56.9273 71.4364C57.4921 72.8013 58.3182 74.0408 59.3581 75.084C60.3981 76.1272 61.6317 76.9537 62.9886 77.5163C64.3454 78.0789 65.799 78.3666 67.2662 78.3629Z" fill="#1E1E1E"/>
</g>
</svg>
