<svg width="110" height="40" viewBox="0 0 110 40" fill="none" xmlns="http://www.w3.org/2000/svg">
<path d="M103.65 12.2512H101.401C100.759 12.2512 100.372 12.6395 100.372 13.2798V19.9311C100.372 22.373 99.055 23.7544 97.2237 23.7544C95.2954 23.7544 94.2031 22.5019 94.2031 20.0926V13.2798C94.2031 12.638 93.8155 12.2512 93.1744 12.2512H90.926C90.2842 12.2512 89.8973 12.6395 89.8973 13.2798V20.4135C89.8973 24.9438 92.2436 27.5139 95.7779 27.5139C97.8989 27.5139 99.5374 26.8077 100.694 25.3611L100.888 26.2615C101.017 26.8439 101.402 27.1612 102.012 27.1612H103.65C104.294 27.1612 104.679 26.7729 104.679 26.1325V13.2798C104.678 12.638 104.293 12.2512 103.65 12.2512ZM87.9698 23.2408H83.9219C82.5079 23.2408 81.7691 22.5019 81.7691 21.0879V13.2798C81.7691 12.638 81.3808 12.2512 80.7404 12.2512H78.4268C77.7842 12.2512 77.3996 12.6395 77.3996 13.2798V21.6341C77.3996 25.072 79.4872 27.1641 82.9288 27.1641H87.9741C88.6159 27.1641 89.0027 26.7758 89.0027 26.1354V24.2687C88.9984 23.6269 88.6123 23.2401 87.9698 23.2401V23.2408ZM22.4864 13.248C22.4212 12.5779 22.0684 12.2519 21.4252 12.2519H19.7229C19.1767 12.2519 18.7913 12.4765 18.5023 12.9589L14.3566 19.9637L10.5015 12.9589C10.2443 12.4736 9.82201 12.2519 9.28017 12.2519H7.44893C6.80568 12.2519 6.45291 12.5779 6.38771 13.248L5.32867 26.1007C5.26347 26.8077 5.61914 27.1612 6.2921 27.1612H8.34862C8.99114 27.1612 9.37724 26.8395 9.40911 26.1644L9.85895 18.967L12.3327 23.4291C12.5899 23.9145 13.0122 24.1369 13.5533 24.1369H14.968C15.5142 24.1369 15.8996 23.9427 16.1886 23.4299L18.9847 18.6417L19.3056 26.1608C19.3375 26.8395 19.6939 27.1568 20.3342 27.1568H22.5508C23.2296 27.1568 23.5795 26.804 23.5143 26.0963L22.4864 13.248ZM74.4101 12.2512H72.6433C72.0326 12.2512 71.6147 12.5728 71.5191 13.1842L71.422 13.9231C70.4267 12.8626 68.9808 11.8984 66.5701 11.8984C62.5222 11.8984 59.5342 15.0799 59.5342 19.674C59.5342 24.1724 62.3288 27.5139 66.3136 27.5139C68.8193 27.5139 70.4585 26.4534 71.4553 25.3611L71.6161 26.2615C71.7132 26.8439 72.1014 27.1612 72.7085 27.1612H74.4108C75.0548 27.1612 75.4394 26.7729 75.4394 26.1325V13.2798C75.4387 12.638 75.0533 12.2512 74.4108 12.2512H74.4101ZM67.5074 23.7544C65.2256 23.7544 63.7805 22.1803 63.7805 19.7384C63.7805 17.2647 65.2901 15.658 67.5074 15.658C69.7885 15.658 71.2336 17.2321 71.2336 19.674C71.2293 22.1484 69.7197 23.7544 67.5074 23.7544ZM56.9633 12.2512H55.1958C54.5852 12.2512 54.1679 12.5728 54.0709 13.1842L53.9738 13.9231C52.9785 12.8626 51.5326 11.8984 49.1241 11.8984C45.0748 11.8984 42.0903 14.8865 42.0903 19.4813C42.0903 23.8515 44.8531 26.9352 48.8379 26.9352C51.3117 26.9352 52.7902 25.9073 53.7855 24.8149V25.5538C53.7855 28.1246 52.3396 29.7639 49.2878 29.7639C48.036 29.7639 46.7988 29.4995 45.6564 28.9881C45.0465 28.6968 44.5641 28.8265 44.2751 29.4372L43.5681 30.8512C43.2769 31.4336 43.3739 31.9117 43.9223 32.2326C45.6246 33.196 47.713 33.5821 49.7369 33.5821C54.7815 33.5821 57.9948 30.4013 57.9948 25.9667V13.2798C57.9919 12.638 57.6066 12.2512 56.964 12.2512H56.9633ZM50.0556 23.2727C47.8376 23.2727 46.3279 21.7949 46.3279 19.5131C46.3279 17.1031 47.902 15.658 50.0556 15.658C52.2722 15.658 53.7818 16.9749 53.7818 19.4494C53.7818 21.666 52.2085 23.2727 50.0556 23.2727ZM39.5159 12.2512H37.7491C37.1377 12.2512 36.7205 12.5728 36.6234 13.1842L36.5263 13.9231C35.531 12.8626 34.0859 11.8984 31.6759 11.8984C27.6273 11.8984 24.6392 15.0799 24.6392 19.674C24.6392 24.1724 27.4346 27.5139 31.4194 27.5139C33.9244 27.5139 35.5629 26.4534 36.5604 25.3611L36.7219 26.2615C36.819 26.8439 37.2073 27.1612 37.8143 27.1612H39.5166C40.1598 27.1612 40.5452 26.7729 40.5452 26.1325V13.2798C40.5438 12.638 40.1591 12.2512 39.5159 12.2512ZM32.6074 23.7544C30.3264 23.7544 28.8798 22.1803 28.8798 19.7384C28.8798 17.2647 30.3901 15.658 32.6074 15.658C34.8892 15.658 36.3344 17.2321 36.3344 19.674C36.3344 22.1484 34.8248 23.7544 32.6074 23.7544Z" fill="#B7B7B7"/>
</svg>
