<svg width="110" height="40" viewBox="0 0 110 40" fill="none" xmlns="http://www.w3.org/2000/svg">
<path d="M100.189 21.0967C99.2455 20.4914 97.2831 19.3016 98.4155 16.5048C99.0573 14.9372 100.114 14.2012 102.813 14.2012H109.594C109.931 14.2012 110.066 14.407 109.97 14.7467L109.839 15.1821C109.404 16.5788 109.027 17.1482 107.365 17.1482H102.264C101.814 17.1482 101.53 17.3561 101.53 17.7154C101.53 17.9974 101.719 18.1487 102.097 18.3947L105.872 20.8126C107.175 21.6432 108.685 22.7972 107.648 25.4045C106.912 27.2378 105.798 27.6907 103.53 27.6907H96.092C95.7145 27.6907 95.621 27.4827 95.7352 27.0876L95.8472 26.7087C96.2813 25.2532 96.7327 24.7448 98.3198 24.7448H103.795C104.25 24.7448 104.532 24.5543 104.532 24.1961C104.532 23.912 104.344 23.7617 103.964 23.5168L100.189 21.0967ZM6.65324 17.4879C6.63366 17.2603 6.57601 17.1482 6.33126 17.1482C6.10717 17.1482 6.01145 17.2418 5.9538 17.4879L3.78366 25.7267C3.4062 27.1812 2.89494 27.6907 1.31004 27.6907H0.403914C0.0253651 27.6907 -0.0681781 27.4827 0.0449515 27.0876L2.80139 16.9588C3.32897 14.9927 4.23618 14.0869 6.88059 14.0869C8.69175 14.0869 9.52282 14.5409 9.67511 16.9207L10.1461 24.403C10.1646 24.6305 10.2027 24.7448 10.4485 24.7448C10.6748 24.7448 10.7683 24.649 10.8249 24.403L12.9406 16.1641C13.3192 14.7075 13.8087 14.2012 15.3958 14.2012H16.3204C16.6968 14.2012 16.7914 14.407 16.6783 14.8044L13.961 24.9331C13.4323 26.897 12.5436 27.8039 9.91768 27.8039C8.06845 27.8039 7.20039 27.351 7.06877 24.9701L6.65324 17.4879ZM45.7363 21.0967C44.7931 20.4914 42.8297 19.3016 43.9621 16.5048C44.6039 14.9372 45.6612 14.2012 48.3622 14.2012H55.1391C55.4785 14.2012 55.6123 14.407 55.5176 14.7467L55.3849 15.1821C54.9509 16.5788 54.5712 17.1482 52.9102 17.1482H47.8128C47.3603 17.1482 47.0775 17.3561 47.0775 17.7154C47.0775 17.9974 47.2668 18.1487 47.6442 18.3947L51.4199 20.8126C52.7231 21.6432 54.2329 22.7972 53.1952 25.4045C52.4588 27.2378 51.3438 27.6907 49.0779 27.6907H41.6386C41.2611 27.6907 41.1686 27.4827 41.2807 27.0876L41.3927 26.7087C41.8278 25.2532 42.2814 24.7448 43.8674 24.7448H49.3423C49.7959 24.7448 50.0798 24.5543 50.0798 24.1961C50.0798 23.912 49.8916 23.7617 49.512 23.5168L45.7363 21.0967ZM42.9994 14.2012C43.3769 14.2012 43.4715 14.4255 43.3573 14.8044L43.2452 15.1821C42.8101 16.6376 42.3565 17.1482 40.7705 17.1482H40.281C38.373 17.1482 37.9586 17.8286 37.4484 19.7359L35.8429 25.7267C35.4458 27.1997 34.9552 27.6907 33.3692 27.6907H32.2369C31.8572 27.6907 31.7658 27.4827 31.879 27.0876L34.3896 17.7513C34.5027 17.3561 34.407 17.1482 34.0306 17.1482H30.1798C29.8024 17.1482 29.7067 16.9403 29.8198 16.5429L29.9318 16.1641C30.3669 14.7075 30.801 14.2012 32.387 14.2012H42.9994ZM67.1667 25.7267C66.7707 27.1812 66.2791 27.6907 64.6931 27.6907H63.5607C63.1821 27.6907 63.0897 27.4827 63.2017 27.0876L64.3733 22.7199C64.4853 22.3247 64.3907 22.1168 64.0121 22.1168H61.1817C59.2748 22.1168 58.8223 22.7972 58.3306 24.7056L58.0674 25.7267C57.6877 27.1997 57.1787 27.6907 55.5938 27.6907H54.4592C54.0828 27.6907 53.9871 27.4827 54.1013 27.0876L57.0449 16.1641C57.443 14.7075 57.9151 14.2012 59.5 14.2012H60.6335C61.0088 14.2012 61.1034 14.407 60.9946 14.8044L59.9558 18.6593C59.8405 19.0566 59.9373 19.2635 60.3137 19.2635H63.1626C65.0705 19.2635 65.5057 18.5841 65.9952 16.6746L66.1279 16.1641C66.5064 14.6911 67.0155 14.2012 68.6026 14.2012H69.7328C70.1146 14.2012 70.2071 14.407 70.0928 14.8044L67.1667 25.7267ZM96.9796 14.2012C97.3582 14.2012 97.4517 14.407 97.3386 14.8044L97.2635 15.0885C96.8654 16.5625 96.3944 17.0535 94.8095 17.0535H90.9196C89.674 17.0535 89.314 17.4498 89.0105 18.5841L88.955 18.791C88.8419 19.1883 88.9365 19.3963 89.314 19.3963H94.6779C95.0542 19.3963 95.1489 19.6031 95.0357 20.0005L94.9574 20.2846C94.5626 21.7575 94.0905 22.2485 92.5045 22.2485H89.5022C88.2567 22.2485 87.8585 22.647 87.5779 23.7792L87.4648 24.2331C87.369 24.6305 87.4463 24.8384 87.8205 24.8384H94.7518C95.1293 24.8384 95.225 25.0453 95.1097 25.4437L95.0357 25.7267C94.6376 27.1997 94.1666 27.6907 92.5795 27.6907H83.688C83.3083 27.6907 83.2159 27.4827 83.329 27.0876L85.782 17.9026C86.5195 15.1636 87.6138 14.2012 90.4279 14.2012H96.9796ZM28.856 14.2012C29.2346 14.2012 29.3281 14.407 29.2161 14.8044L29.141 15.0885C28.744 16.5625 28.2719 17.0535 26.687 17.0535H22.796C21.5515 17.0535 21.1915 17.4498 20.888 18.5841L20.8325 18.791C20.7194 19.1883 20.814 19.3963 21.1915 19.3963H26.5532C26.9306 19.3963 27.0253 19.6031 26.9132 20.0005L26.8371 20.2846C26.4411 21.7575 25.969 22.2485 24.382 22.2485H21.3797C20.1331 22.2485 19.7371 22.647 19.4565 23.7792L19.3422 24.2331C19.2476 24.6305 19.3227 24.8384 19.699 24.8384H26.6293C27.0068 24.8384 27.1014 25.0453 26.9883 25.4437L26.9132 25.7267C26.5151 27.1997 26.043 27.6907 24.4581 27.6907H15.5644C15.1869 27.6907 15.0934 27.4827 15.2076 27.0876L17.6605 17.9026C18.397 15.1636 19.4902 14.2012 22.3043 14.2012H28.856ZM79.797 20.8899C80.553 18.1683 80.6095 16.8641 77.4376 16.8641C75.2653 16.8641 74.5887 17.4683 73.6249 20.9454C72.8678 23.667 72.7927 24.9701 75.9277 24.9701C78.2295 24.9701 78.8528 24.2701 79.797 20.8899ZM70.0363 20.6624C71.4319 15.07 74.0774 13.916 77.852 13.916C83.9327 13.916 84.4799 16.9033 83.4041 21.1729C82.0813 26.4061 79.797 27.916 75.4926 27.916C69.9047 27.916 68.8647 25.3675 70.0363 20.6624Z" fill="#B7B7B7"/>
</svg>
