<svg width="897" height="147" viewBox="0 0 897 147" fill="none" xmlns="http://www.w3.org/2000/svg">
<path d="M89.6294 65.86L89.3255 66.7705C95.4021 69.5021 109.074 80.1248 109.074 101.37C109.074 121.402 92.06 141.736 65.6269 141.736C32.5096 141.736 20.9642 122.312 20.9642 104.709C20.9642 81.9458 36.7632 66.7705 36.7632 46.1322C36.4594 30.9569 25.8254 17.9061 11.2417 14.8711L10.634 15.4781C15.7991 20.6377 18.8374 27.6183 18.8374 34.9025C18.8374 57.3619 0 73.4476 0 98.9421C0 122.616 16.7106 146.896 64.7154 146.896C107.555 146.896 130.039 125.954 130.039 103.798C130.039 84.6773 116.366 68.288 89.6294 65.86Z" fill="#B7B7B7"/>
<path d="M277.699 142.951L220.883 69.8063V135.97L232.429 138.702V141.737H205.995V138.702L215.414 135.97V64.0397C212.984 61.9151 210.249 60.3976 207.211 59.4871C205.995 59.1836 204.476 58.8801 204.476 58.8801V55.845H226.96L275.572 118.974V61.6116L264.331 58.8801V55.845H290.764V58.8801L281.345 61.6116V127.169C281.345 133.239 281.649 142.041 281.953 143.255L277.699 142.951ZM396.8 96.5147C396.8 126.865 375.532 144.469 352.441 144.469C329.35 144.469 307.778 126.562 307.778 98.9428C307.778 71.3238 329.046 53.1135 352.137 53.1135C376.139 52.2029 396.192 71.0203 396.8 94.9972C396.8 95.3007 396.8 95.9077 396.8 96.5147ZM381.912 101.067C381.912 78.9114 368.544 57.059 350.314 57.059C330.869 57.059 322.362 75.8764 322.362 95.6042C322.362 115.332 333.3 140.22 354.264 140.22C373.709 140.523 381.912 120.795 381.912 101.067ZM415.333 61.6116L406.218 58.8801V55.845H441.159V58.8801L430.221 61.6116L454.223 127.169L478.226 61.6116L467.288 58.8801V55.845H493.113V58.8801L483.998 61.6116L453.919 143.255H446.324L415.333 61.6116ZM621.633 97.7288H616.164V60.0941C634.394 60.0941 645.331 64.3432 645.331 79.2149C645.027 90.4446 635.609 97.7288 621.633 97.7288ZM777.8 138.702L789.954 135.97V61.6116L777.8 58.8801V55.845H815.779V58.8801L803.626 61.6116V135.97L815.779 138.702V141.737H777.8V138.702ZM838.87 118.064H841.301L849.2 136.577C854.061 139.006 859.226 140.22 864.695 140.523C875.026 140.523 884.748 134.453 884.748 123.527C884.748 115.332 879.279 110.476 870.772 105.923L862.265 101.371C851.935 95.9077 841.908 88.6236 841.908 76.4834C841.908 63.4326 851.023 53.1135 870.468 53.1135C877.456 53.1135 884.14 54.3275 890.521 56.452L892.648 76.4834H889.913L882.317 60.3976C878.368 58.273 874.114 57.059 869.557 57.059C859.834 57.059 852.846 63.1291 852.846 71.6273C852.846 79.2149 858.011 84.071 866.518 88.6236L876.545 93.7832C890.521 101.067 896.901 107.744 896.901 119.885C896.901 135.06 882.621 144.469 864.999 144.469C856.796 144.469 848.289 143.255 840.389 140.827L838.87 118.064ZM487.644 138.702L497.367 135.97L527.446 55.845L537.472 53.417L568.463 136.274L578.185 139.006V142.041H541.422V139.006L553.879 136.274L545.068 112.601H511.951L503.14 136.274L515.597 139.006V142.041H487.341L487.644 138.702ZM514.381 105.62H542.941L528.661 67.3782L514.381 105.62ZM638.951 99.5498C641.989 98.9428 659.004 94.3902 659.004 78.3044C659.004 65.2537 648.977 55.238 624.671 55.238C609.48 55.238 594.288 55.5415 592.465 55.5415V58.5766L602.492 61.3081V135.667L592.465 138.398V141.434H627.709V138.398L616.164 135.667V102.281H626.19L651.712 141.737H674.499V138.702L662.953 135.667L638.951 99.5498ZM713.693 60.0941V135.667L701.54 138.398V141.434H739.518V138.398L727.365 135.667V60.0941H747.721L754.406 74.6623H757.14L755.317 55.845H686.044L684.221 74.6623H686.956L693.64 60.3976L713.693 60.0941ZM65.3229 114.725L77.4761 0H52.2583L64.4114 114.725H65.3229Z" fill="#B7B7B7"/>
</svg>
