<svg width="903" height="118" viewBox="0 0 903 118" fill="none" xmlns="http://www.w3.org/2000/svg">
<g clip-path="url(#clip0_341_5103)">
<path d="M194.756 56.2053C204.262 51.1913 211.205 42.6042 211.205 31.2017C211.205 11.3653 195.878 0 169.18 0H118.693V116.973H173.192C199.377 116.973 215.653 104.306 215.653 83.9456C215.674 70.1914 206.565 61.0598 194.756 56.2053ZM169.617 51.7751H138.225V9.71326H167.813C184.471 9.71326 191.564 16.1453 191.564 31.2017C191.564 45.7343 185.001 51.7751 169.617 51.7751ZM138.24 107.26V61.4883H169.333C179.165 61.4883 195.671 64.4404 195.671 84.2189C195.671 100.383 188.52 107.26 171.75 107.26H138.24ZM0.0351522 66.8915C0.0351522 39.0104 21.3116 16.3792 47.5731 16.3792C73.7767 16.3792 95.1111 39.0104 95.1111 66.8915C95.1111 94.7685 73.7581 117.402 47.5731 117.402C21.3882 117.4 0.0330811 94.7685 0.0330811 66.8874L0.0351522 66.8915ZM18.4597 66.8915C18.4597 92.4168 29.3371 107.686 47.5731 107.686V107.649C65.7325 107.649 76.5727 92.4168 76.5727 66.8894C76.5727 41.3621 65.8092 26.0925 47.5731 26.0925C29.3371 26.0925 18.4597 41.3621 18.4597 66.8874V66.8915ZM232.139 66.8915C232.139 39.0104 253.418 16.3792 279.679 16.3792C305.883 16.3792 327.219 39.0104 327.219 66.8915C327.219 94.7685 305.864 117.402 279.679 117.402C253.494 117.402 232.139 94.7706 232.139 66.8915ZM250.566 66.8915C250.566 92.4168 261.443 107.686 279.679 107.686V107.649C297.839 107.649 308.679 92.4168 308.679 66.8894C308.679 41.3621 297.915 26.0925 279.679 26.0925C261.443 26.0925 250.566 41.3642 250.566 66.8915ZM366.069 27.258H331.27V17.6586H418.534V27.2559H383.582V115.982H366.069V27.2539V27.258ZM453.826 17.6607H436.199V115.984H453.826V17.6586V17.6607ZM520.878 107.434C528.692 107.434 542.688 104.966 548.659 88.471L550.354 83.6931L558.889 87.9473L557.499 91.833C551.586 107.96 537.973 117.226 520.136 117.226C493.34 117.226 473.131 95.5821 473.131 66.9081C473.131 38.6026 493.777 16.3958 520.136 16.3958C537.875 16.3958 551.395 25.7406 557.255 42.0598L558.621 45.9455L550.084 50.297L548.39 45.4797C544.074 33.2988 534.054 26.3036 520.878 26.3036C502.563 26.3036 491.628 41.4366 491.628 66.8501C491.628 92.2615 502.563 107.434 520.878 107.434ZM743.931 98.1884L738.816 83.2666C736.795 77.7754 732.93 73.155 727.882 70.1934C737.047 66.0945 744.996 58.3996 744.996 46.0842C744.996 28.3076 730.79 17.7 706.966 17.7H671.138V116.023H688.786V74.1744H704.17C715.445 74.1744 719.078 78.6832 722.199 87.5995L727.159 101.78C728.43 106.099 730.299 110.219 732.71 114.021L734.044 115.963H757.756L749.37 108.076C746.795 105.26 744.931 101.87 743.931 98.1884ZM688.786 27.2394H705.784C720.598 27.2394 726.934 32.8909 726.934 46.1401C726.934 58.8654 720.449 64.5398 705.92 64.5398H688.805L688.786 27.2394ZM770.725 17.6607H788.352V115.984H770.725V17.6586V17.6607ZM855.269 16.3772C829.026 16.3772 807.727 39.0104 807.727 66.8894C807.727 94.7685 829.103 117.402 855.269 117.402C881.436 117.402 902.805 94.7685 902.805 66.8894C902.805 39.0104 881.473 16.3772 855.269 16.3772ZM855.269 25.9745C873.429 25.9745 884.265 41.2462 884.265 66.7735C884.265 92.3008 873.429 107.57 855.269 107.57C837.108 107.57 826.079 92.3588 826.079 66.8108C826.079 41.2648 837.052 25.9745 855.269 25.9745ZM612.263 2.04119H622.61L614.605 21.0992L656.744 116.042H637.992L623.14 82.6455H588.381L573.985 115.984H563.66L612.263 2.04119ZM605.304 42.5462L592.414 72.9323H618.806L605.304 42.5462Z" fill="#B7B7B7"/>
</g>
<defs>
<clipPath id="clip0_341_5103">
<rect width="903" height="118" fill="white"/>
</clipPath>
</defs>
</svg>
