<svg width="443" height="443" viewBox="0 0 443 443" fill="none" xmlns="http://www.w3.org/2000/svg">
<g clip-path="url(#clip0_280_3561)">
<path fill-rule="evenodd" clip-rule="evenodd" d="M0 107.392H442.454V0H0V107.392Z" fill="#B7B7B7"/>
<path fill-rule="evenodd" clip-rule="evenodd" d="M0 442.453H442.454V161.086H0V442.453Z" fill="#B7B7B7"/>
<path fill-rule="evenodd" clip-rule="evenodd" d="M442.454 161.087V107.391H0V161.087H84.6341L37.4961 324.322H133.915C175.696 324.322 183.195 314.657 191.766 307.139C203.55 297.474 208.907 274.922 204.622 258.813C201.408 248.074 190.695 240.557 189.623 240.557C202.479 234.113 209.978 221.226 211.05 219.078C216.406 209.413 219.62 191.156 207.836 176.121C198.194 164.308 177.839 160.013 163.912 160.013H266.758L219.62 324.322H267.83L284.971 262.035H312.825C333.18 262.035 331.037 274.922 331.037 280.292L332.109 326.47H377.104C377.104 326.47 374.961 274.922 374.961 271.7C373.89 258.813 365.32 252.37 357.82 252.37C371.747 248.074 384.603 235.187 388.889 227.67C394.245 218.004 398.53 202.969 393.174 187.935C384.603 166.456 364.248 162.16 349.25 162.16H442.454V161.087ZM304.254 194.378H339.608C355.678 194.378 356.749 205.117 356.749 208.339C356.749 215.856 350.321 230.891 329.966 230.891H294.613C294.613 230.891 304.254 195.452 304.254 194.378ZM104.989 255.591H137.129C153.199 255.591 153.199 259.887 155.341 263.109C157.484 266.331 156.412 273.848 155.341 277.07C153.199 280.292 149.985 291.031 130.701 291.031H95.3473L104.989 255.591ZM123.202 194.378H159.626C167.126 194.378 173.554 198.674 173.554 207.265C173.554 218.004 164.983 225.522 153.199 225.522H113.56L123.202 194.378Z" fill="#1E1E1E"/>
</g>
<defs>
<clipPath id="clip0_280_3561">
<rect width="442.454" height="442.454" fill="white"/>
</clipPath>
</defs>
</svg>
