<svg width="898" height="211" viewBox="0 0 898 211" fill="none" xmlns="http://www.w3.org/2000/svg">
<g clip-path="url(#clip0_280_3584)">
<path d="M155.959 94.3836C149.813 99.4456 145.233 100.289 143.184 98.2404C141.859 96.9146 141.618 94.2635 142.582 90.8889C145.836 80.1628 148.366 69.3165 150.415 58.3497C162.708 52.9265 175.001 47.8649 188.619 46.5392C182.232 64.0138 170.542 82.2115 155.959 94.3836ZM149.692 130.418C141.979 128.851 138.364 125.477 138.605 122.464C138.725 120.536 140.533 118.608 143.667 117.282C153.308 113.184 162.829 108.725 171.867 103.302C183.798 109.087 195.247 116.438 204.406 125.718C187.655 131.985 167.046 134.034 149.692 130.418ZM117.876 149.459C114.14 141.746 114.502 136.444 116.912 134.636C118.599 133.431 121.25 133.672 124.264 135.359C133.664 140.662 143.184 145.482 153.308 149.459C153.308 149.459 153.308 149.459 153.308 149.58C156.923 164.041 159.093 179.227 158.128 194.171C141.377 183.565 126.192 166.693 117.876 149.459ZM81.8424 135.6C86.0601 127.164 90.5191 123.91 93.5323 124.874C95.5811 125.477 97.027 127.767 97.5092 131.503C99.1965 143.313 101.727 154.883 104.74 166.332C94.2553 180.432 83.0475 194.05 68.9467 205.137C67.3801 182.36 71.7191 156.208 81.8424 135.6ZM70.9955 96.6738C80.5166 94.7451 85.6986 96.3123 86.9037 99.3249C87.6267 101.253 86.663 103.905 84.0113 106.797C75.0931 116.077 66.898 125.839 59.0647 135.962H58.9442C39.7823 137.287 19.7767 136.564 0.976318 132.105C20.1383 115.956 46.0491 101.614 70.9955 96.6738ZM95.3397 65.0988C102.45 71.2446 104.379 76.0658 102.812 78.7168C101.727 80.4042 99.1965 81.2478 95.3397 80.8863C82.5654 79.4398 69.7904 78.8375 56.8955 78.8375C44.7234 64.8574 33.636 49.3111 26.5256 32.5594C50.7492 37.9826 76.7805 49.3111 95.3397 65.0988ZM133.182 65.5804C133.182 74.2578 130.772 78.5961 127.879 78.8375C125.951 79.0783 123.781 77.5117 121.733 74.3785C115.225 64.2552 108.115 54.4932 100.522 44.9725C103.414 29.7875 108.115 14.3616 116.189 0.984375C126.312 20.3873 133.302 44.0084 133.182 65.5804Z" fill="#B7B7B7"/>
<path fill-rule="evenodd" clip-rule="evenodd" d="M100.515 44.8545C103.407 29.7901 108.107 14.3641 116.182 0.986884C98.9482 -1.42342 81.232 0.625336 65.083 6.6511C74.9655 16.2923 84.7273 26.0541 93.5248 36.539C94.5523 37.7824 95.6522 39.0744 96.7379 40.3496C98.0724 41.917 99.3852 43.459 100.515 44.8545ZM155.111 14.6095C154.388 26.1789 153.544 37.6279 151.857 48.9563C151.656 50.2117 151.455 51.5717 151.254 52.9317C150.973 54.8356 150.692 56.7397 150.411 58.3565C162.703 52.9333 174.996 47.8717 188.614 46.5461C180.058 33.6509 168.609 22.684 155.111 14.6095ZM203.672 81.3713C195.838 87.5177 187.764 93.5433 179.207 98.7254C178.117 99.3796 176.977 100.108 175.843 100.832C174.472 101.708 173.11 102.579 171.856 103.305C183.787 109.089 195.236 116.441 204.395 125.721C206.564 110.415 206.444 96.6766 203.672 81.3713ZM161.603 152.593C171.003 156.089 180.765 158.74 190.526 161.15C182.452 174.166 171.365 185.615 158.228 194.171C159.193 179.228 157.023 164.042 153.408 149.581V149.46C155.409 150.361 157.909 151.261 160.218 152.093C160.689 152.263 161.154 152.43 161.603 152.593ZM120.032 208.993C115.453 198.026 111.114 186.939 107.619 175.852C107.369 175.038 107.103 174.193 106.833 173.336C106.062 170.892 105.262 168.352 104.727 166.211C94.2422 180.311 83.0344 193.929 69.0543 205.016C85.9269 209.958 102.437 212.127 120.032 208.993ZM52.4363 145.247C44.2413 156.695 36.7693 168.988 29.6589 181.281C15.6791 167.662 5.79686 150.549 0.976248 132.11C19.7766 136.569 39.7822 137.292 58.9442 135.966H59.0647C57.8354 137.63 56.476 139.553 55.1166 141.477C54.211 142.758 53.3034 144.042 52.4363 145.247ZM0 82.9342C15.0644 81.1261 30.2494 79.5595 45.1933 79.0774C46.4578 79.0384 47.787 78.9857 49.1217 78.9331C51.857 78.8248 54.6155 78.7159 56.8833 78.7159C44.5907 64.8571 33.6238 49.3103 26.5134 32.5587C13.1362 46.659 3.97701 64.2542 0 82.9342Z" fill="#B7B7B7"/>
<path fill-rule="evenodd" clip-rule="evenodd" d="M263.328 69.9128C260.557 90.4008 268.029 102.573 288.516 110.527L315.511 120.771C324.068 123.783 325.997 125.23 324.912 133.425C323.224 143.91 319.007 146.681 300.085 146.681H254.29L250.193 174.038H301.411C341.302 174.038 354.8 165.12 358.777 135.594C361.307 117.035 357.933 103.657 333.348 94.6184L307.798 85.2181C297.917 81.7234 296.109 80.2775 297.434 72.0823C298.88 62.9228 302.496 60.8743 309.847 60.3922H364.561L368.659 33.0352H319.85C286.588 33.0352 267.788 38.9405 263.328 69.9128ZM418.793 60.3922L422.771 33.0352H389.628L385.531 60.3922H418.793ZM402.042 173.917H368.9L383.483 74.3713H416.745L402.042 173.917ZM483.759 71.6057C464.958 71.6057 451.942 75.3412 443.145 83.4163C434.347 91.3701 429.285 103.421 426.393 122.704C423.5 141.866 425.911 155.364 433.865 163.92C441.457 172.236 454.232 176.213 473.153 176.213C482.433 176.213 496.051 175.37 508.223 171.513L509.066 171.272L512.562 147.771L510.392 148.133C501.836 149.338 491.11 149.82 478.456 149.82C469.778 149.82 465.319 148.856 462.909 146.205C459.897 142.951 459.294 136.563 460.981 124.271C463.873 101.493 471.345 97.878 487.976 97.878C494.725 97.878 519.913 98.2394 519.913 98.2394L523.167 75.9441C523.151 75.9602 522.882 75.8939 522.368 75.7664C519.056 74.9463 505.561 71.6057 483.759 71.6057ZM607.403 74.3713H613.79L612.585 76.5408C603.306 91.6053 600.292 104.38 600.292 104.5L600.052 105.585H592.941C584.264 105.585 572.574 111.611 568.356 116.672L560.281 173.917H526.898L541.481 74.3713H567.874V93.5334C583.3 80.1562 595.231 74.3713 607.403 74.3713ZM715.141 106.555C716.707 96.0699 715.018 88.2369 709.954 82.6927C703.208 75.2211 690.191 71.6057 670.309 71.6057C630.057 71.6057 614.87 84.2593 610.049 121.861C607.639 141.143 610.411 154.761 618.606 163.438C626.56 171.995 639.819 176.213 658.976 176.213C672.476 176.213 693.087 173.803 706.098 168.62L707.305 168.139L706.946 166.934C706.946 166.934 706.934 166.889 706.915 166.823C706.89 166.737 706.853 166.601 706.798 166.419C706.203 164.367 703.919 156.537 703.09 149.338L702.849 147.771L701.283 148.133C697.303 149.097 672.717 150.302 662.597 150.302C650.781 150.302 644.517 148.133 643.792 136.684L672.476 134.635C696.337 133.068 711.886 127.766 715.141 106.555ZM645.724 116.799C648.732 100.65 652.594 95.5884 668.26 95.5884H671.392C676.697 95.5884 680.312 95.9499 681.754 97.5165C682.72 98.6009 683.085 100.409 682.843 103.542C681.754 112.34 677.174 114.148 667.412 114.871L645.724 116.799ZM802.026 73.8891L808.049 33.1551L841.313 33.2756L820.466 174.037H793.831V158.25C780.573 170.181 766.955 176.328 753.097 176.328C743.453 176.328 736.224 173.676 731.16 168.132C723.324 159.697 721.04 144.632 724.172 122.216C730.319 80.1562 746.709 71.7202 771.294 71.7202C781.056 71.7202 792.141 72.4432 802.026 73.8891ZM764.3 149.091C774.426 148.85 782.498 143.788 792.866 134.991L798.647 94.8592H784.07C765.507 94.8592 761.533 97.1488 757.912 122.939C756.105 136.196 755.504 144.391 758.277 147.404C759.484 148.73 761.409 149.212 764.3 149.091ZM890.731 60.3922L894.711 33.0352H861.565L857.591 60.3922H890.731ZM873.982 173.917H840.842L855.419 74.3713H888.682L873.982 173.917Z" fill="#B7B7B7"/>
</g>
<defs>
<clipPath id="clip0_280_3584">
<rect width="897.509" height="210.45" fill="white"/>
</clipPath>
</defs>
</svg>
