<svg preserveAspectRatio="none" width="100%" height="100%" overflow="visible" style="display: block;" viewBox="0 0 105 48" fill="none" xmlns="http://www.w3.org/2000/svg">
<g id="Logo CO" clip-path="url(#clip0_0_9)">
<path id="Vector" d="M0 1.92C0 0.859615 0.854729 0 1.90909 0H45.8182C46.8725 0 47.7273 0.853476 47.7273 1.91386C47.7273 5.328 47.7273 12.5534 47.7273 17.2823C47.7273 18.3426 46.8734 19.2 45.8191 19.2C43.8122 19.2 41.308 19.2 39.6132 19.2C38.5589 19.2 37.7045 20.0595 37.7045 21.1199C37.7045 22.4623 37.7045 24 37.7045 24C37.7045 24 37.7045 25.5425 37.7045 26.8805C37.7045 27.9408 38.557 28.8 39.6113 28.8C41.3936 28.8 44.0382 28.8 45.8206 28.8C46.8749 28.8 47.7273 29.6585 47.7273 30.7188C47.7273 35.5358 47.7273 42.695 47.7273 46.0862C47.7273 47.1466 46.8725 48 45.8182 48H1.90909C0.854731 48 0 47.1403 0 46.08V1.92Z" fill="var(--fill-0, #FAEA4D)"/>
<path id="Vector_2" d="M102.852 0C104.039 4.32941e-07 105 0.967066 105 2.16V45.84C105 47.033 104.039 48 102.852 48H59.4205C58.2342 48 57.2727 47.033 57.2727 45.84V2.16C57.2727 0.967066 58.2342 4.63865e-08 59.4205 0H102.852ZM78.2727 19.2C77.2184 19.2 76.3636 20.0596 76.3636 21.12V26.88C76.3636 27.9403 77.2184 28.8 78.2727 28.8H84C85.0543 28.8 85.9091 27.9403 85.9091 26.88V21.12C85.9091 20.0596 85.0543 19.2 84 19.2H78.2727Z" fill="var(--fill-0, #FAEA4D)"/>
</g>
<defs>
<clipPath id="clip0_0_9">
<rect width="105" height="48" fill="white"/>
</clipPath>
</defs>
</svg>
